<svg width="3798" height="6171" viewBox="0 0 3798 6171" fill="none" xmlns="http://www.w3.org/2000/svg">
<path d="M1878.26 809.704C2029.38 809.704 2166.17 842.96 2265.16 896.704C2364.17 950.458 2425.26 1024.64 2425.26 1106.45C2425.26 1188.26 2364.17 1262.44 2265.16 1316.19C2166.17 1369.93 2029.38 1403.19 1878.26 1403.19C1727.14 1403.19 1590.35 1369.93 1491.36 1316.19C1392.35 1262.44 1331.26 1188.26 1331.26 1106.45C1331.26 1024.64 1392.35 950.458 1491.36 896.704C1590.35 842.96 1727.14 809.704 1878.26 809.704Z" fill="url(#paint0_linear_3632_4411)" stroke="#FEFBCC"/>
<path d="M1878.26 862C2000.04 862 2110.25 888.669 2189.97 931.735C2269.73 974.824 2318.76 1034.18 2318.76 1099.5C2318.76 1164.82 2269.73 1224.18 2189.97 1267.27C2110.25 1310.33 2000.04 1337 1878.26 1337C1756.48 1337 1646.27 1310.33 1566.55 1267.27C1486.78 1224.18 1437.76 1164.82 1437.76 1099.5C1437.76 1034.18 1486.78 974.824 1566.55 931.735C1646.27 888.669 1756.48 862 1878.26 862Z" stroke="#FEFBCC" stroke-width="2"/>
<path d="M1878.26 930C1971.05 930 2055.01 949.787 2115.74 981.728C2176.51 1013.69 2213.76 1057.68 2213.76 1106C2213.76 1154.32 2176.51 1198.31 2115.74 1230.27C2055.01 1262.21 1971.05 1282 1878.26 1282C1785.47 1282 1701.51 1262.21 1640.78 1230.27C1580.01 1198.31 1542.76 1154.32 1542.76 1106C1542.76 1057.68 1580.01 1013.69 1640.78 981.728C1701.51 949.787 1785.47 930 1878.26 930Z" stroke="#FEFBCC" stroke-width="2"/>
<path d="M1878.26 995C1936.81 995 1989.77 1007.51 2028.05 1027.69C2066.38 1047.89 2089.76 1075.63 2089.76 1106C2089.76 1136.37 2066.38 1164.11 2028.05 1184.31C1989.77 1204.49 1936.81 1217 1878.26 1217C1819.71 1217 1766.75 1204.49 1728.47 1184.31C1690.14 1164.11 1666.76 1136.37 1666.76 1106C1666.76 1075.63 1690.14 1047.89 1728.47 1027.69C1766.75 1007.51 1819.71 995 1878.26 995Z" stroke="#FEFBCC" stroke-width="2"/>
<g filter="url(#filter0_d_3632_4411)">
<mask id="path-5-inside-1_3632_4411" fill="white">
<path d="M1877.93 1017C1929.48 1017 1972.16 1051.47 1979.49 1096.39C1979.76 1097.58 1979.93 1098.78 1980 1099.99C1980.07 1100.57 1980.14 1101.16 1980.19 1101.74C1980.15 1101.48 1980.09 1101.22 1980.04 1100.96C1980.04 1101.09 1980.04 1101.22 1980.04 1101.35C1980.04 1127.61 1934.32 1148.9 1877.93 1148.9C1821.53 1148.9 1775.81 1127.61 1775.81 1101.35C1775.81 1101.23 1775.81 1101.1 1775.81 1100.98C1775.76 1101.23 1775.71 1101.49 1775.66 1101.74C1775.72 1101.18 1775.78 1100.63 1775.85 1100.07C1775.92 1098.82 1776.09 1097.58 1776.37 1096.35C1783.72 1051.45 1826.39 1017 1877.93 1017Z"/>
</mask>
<path d="M1877.93 1017C1929.48 1017 1972.16 1051.47 1979.49 1096.39C1979.76 1097.58 1979.93 1098.78 1980 1099.99C1980.07 1100.57 1980.14 1101.16 1980.19 1101.74C1980.15 1101.48 1980.09 1101.22 1980.04 1100.96C1980.04 1101.09 1980.04 1101.22 1980.04 1101.35C1980.04 1127.61 1934.32 1148.9 1877.93 1148.9C1821.53 1148.9 1775.81 1127.61 1775.81 1101.35C1775.81 1101.23 1775.81 1101.1 1775.81 1100.98C1775.76 1101.23 1775.71 1101.49 1775.66 1101.74C1775.72 1101.18 1775.78 1100.63 1775.85 1100.07C1775.92 1098.82 1776.09 1097.58 1776.37 1096.35C1783.72 1051.45 1826.39 1017 1877.93 1017Z" fill="url(#paint1_linear_3632_4411)"/>
<path d="M1877.93 1017V1015V1015V1017ZM1979.49 1096.39L1977.52 1096.71L1977.53 1096.77L1977.54 1096.82L1979.49 1096.39ZM1980 1099.99L1978 1100.11L1978.01 1100.17L1978.01 1100.23L1980 1099.99ZM1980.19 1101.74L1978.23 1102.1L1982.18 1101.55L1980.19 1101.74ZM1980.04 1100.96L1981.99 1100.55L1978.04 1101L1980.04 1100.96ZM1980.04 1101.35H1982.04V1101.35L1980.04 1101.35ZM1877.93 1148.9V1150.9V1150.9V1148.9ZM1775.81 1101.35L1773.81 1101.35V1101.35H1775.81ZM1775.81 1100.98L1777.81 1101.01L1773.86 1100.56L1775.81 1100.98ZM1775.66 1101.74L1773.67 1101.55L1777.63 1102.1L1775.66 1101.74ZM1775.85 1100.07L1777.83 1100.3L1777.84 1100.24L1777.84 1100.18L1775.85 1100.07ZM1776.37 1096.35L1778.32 1096.79L1778.33 1096.73L1778.34 1096.67L1776.37 1096.35ZM1877.93 1017V1019C1928.63 1019 1970.37 1052.88 1977.52 1096.71L1979.49 1096.39L1981.47 1096.07C1973.96 1050.06 1930.33 1015 1877.93 1015V1017ZM1979.49 1096.39L1977.54 1096.82C1977.78 1097.91 1977.94 1099.01 1978 1100.11L1980 1099.99L1982 1099.87C1981.92 1098.55 1981.73 1097.25 1981.44 1095.95L1979.49 1096.39ZM1980 1099.99L1978.01 1100.23C1978.08 1100.8 1978.15 1101.37 1978.2 1101.94L1980.19 1101.74L1982.18 1101.55C1982.12 1100.94 1982.06 1100.34 1981.99 1099.76L1980 1099.99ZM1980.19 1101.74L1982.16 1101.39C1982.11 1101.1 1982.05 1100.82 1981.99 1100.55L1980.04 1100.96L1978.08 1101.38C1978.13 1101.63 1978.18 1101.87 1978.23 1102.1L1980.19 1101.74ZM1980.04 1100.96L1978.04 1101C1978.04 1101.16 1978.04 1101.25 1978.04 1101.35L1980.04 1101.35L1982.04 1101.35C1982.04 1101.2 1982.04 1101.03 1982.04 1100.93L1980.04 1100.96ZM1980.04 1101.35H1978.04C1978.04 1113.24 1967.61 1124.63 1949.29 1133.16C1931.13 1141.61 1905.9 1146.9 1877.93 1146.9V1148.9V1150.9C1906.35 1150.9 1932.18 1145.54 1950.98 1136.79C1969.61 1128.11 1982.04 1115.72 1982.04 1101.35H1980.04ZM1877.93 1148.9V1146.9C1849.95 1146.9 1824.72 1141.61 1806.56 1133.16C1788.24 1124.63 1777.81 1113.24 1777.81 1101.35H1775.81H1773.81C1773.81 1115.72 1786.24 1128.11 1804.87 1136.78C1823.67 1145.54 1849.5 1150.9 1877.93 1150.9V1148.9ZM1775.81 1101.35L1777.81 1101.35C1777.81 1101.25 1777.81 1101.15 1777.81 1101.01L1775.81 1100.98L1773.81 1100.94C1773.81 1101.05 1773.81 1101.21 1773.81 1101.35L1775.81 1101.35ZM1775.81 1100.98L1773.86 1100.56C1773.8 1100.83 1773.74 1101.11 1773.69 1101.39L1775.66 1101.74L1777.63 1102.1C1777.67 1101.87 1777.72 1101.63 1777.77 1101.39L1775.81 1100.98ZM1775.66 1101.74L1777.65 1101.94C1777.71 1101.4 1777.77 1100.85 1777.83 1100.3L1775.85 1100.07L1773.86 1099.83C1773.79 1100.4 1773.73 1100.97 1773.67 1101.55L1775.66 1101.74ZM1775.85 1100.07L1777.84 1100.18C1777.91 1099.04 1778.07 1097.91 1778.32 1096.79L1776.37 1096.35L1774.42 1095.91C1774.12 1097.24 1773.93 1098.59 1773.85 1099.95L1775.85 1100.07ZM1776.37 1096.35L1778.34 1096.67C1785.51 1052.86 1827.24 1019 1877.93 1019V1017V1015C1825.54 1015 1781.92 1050.04 1774.39 1096.03L1776.37 1096.35Z" fill="#FEFBCC" mask="url(#path-5-inside-1_3632_4411)"/>
</g>
<g filter="url(#filter1_d_3632_4411)">
<mask id="path-7-inside-2_3632_4411" fill="white">
<path d="M2425.57 1103.48C2425.69 1108.36 2425.76 1113.25 2425.76 1118.17C2425.76 1423.01 2180.64 1670.14 1878.26 1670.14C1575.88 1670.14 1330.76 1423.01 1330.76 1118.17C1330.76 1113.25 1330.82 1108.36 1330.95 1103.48C1338.67 1265.71 1580.76 1395.92 1878.26 1395.92C2175.76 1395.92 2417.85 1265.71 2425.57 1103.48Z"/>
</mask>
<path d="M2425.57 1103.48C2425.69 1108.36 2425.76 1113.25 2425.76 1118.17C2425.76 1423.01 2180.64 1670.14 1878.26 1670.14C1575.88 1670.14 1330.76 1423.01 1330.76 1118.17C1330.76 1113.25 1330.82 1108.36 1330.95 1103.48C1338.67 1265.71 1580.76 1395.92 1878.26 1395.92C2175.76 1395.92 2417.85 1265.71 2425.57 1103.48Z" fill="url(#paint2_radial_3632_4411)"/>
<path d="M2425.57 1103.48L2427.57 1103.42L2423.57 1103.38L2425.57 1103.48ZM2425.76 1118.17H2427.76V1118.17L2425.76 1118.17ZM1878.26 1670.14V1672.14V1672.14V1670.14ZM1330.76 1118.17L1328.76 1118.17V1118.17H1330.76ZM1330.95 1103.48L1332.95 1103.38L1328.95 1103.42L1330.95 1103.48ZM1878.26 1395.92V1397.92V1397.92V1395.92ZM2425.57 1103.48L2423.57 1103.53C2423.7 1108.39 2423.76 1113.27 2423.76 1118.17L2425.76 1118.17L2427.76 1118.17C2427.76 1113.24 2427.69 1108.32 2427.57 1103.42L2425.57 1103.48ZM2425.76 1118.17H2423.76C2423.76 1421.92 2179.52 1668.14 1878.26 1668.14V1670.14V1672.14C2181.76 1672.14 2427.76 1424.1 2427.76 1118.17H2425.76ZM1878.26 1670.14V1668.14C1577 1668.14 1332.76 1421.92 1332.76 1118.17H1330.76H1328.76C1328.76 1424.1 1574.76 1672.14 1878.26 1672.14V1670.14ZM1330.76 1118.17L1332.76 1118.17C1332.76 1113.27 1332.82 1108.39 1332.95 1103.53L1330.95 1103.48L1328.95 1103.42C1328.82 1108.32 1328.76 1113.24 1328.76 1118.17L1330.76 1118.17ZM1330.95 1103.48L1328.95 1103.57C1332.86 1185.71 1396.05 1259.32 1494.99 1312.3C1594.01 1365.31 1729.24 1397.92 1878.26 1397.92V1395.92V1393.92C1729.77 1393.92 1595.21 1361.42 1496.88 1308.77C1398.47 1256.08 1336.76 1183.47 1332.95 1103.38L1330.95 1103.48ZM1878.26 1395.92V1397.92C2027.28 1397.92 2162.51 1365.31 2261.53 1312.3C2360.47 1259.32 2423.66 1185.71 2427.57 1103.57L2425.57 1103.48L2423.57 1103.38C2419.76 1183.47 2358.04 1256.08 2259.64 1308.77C2161.3 1361.42 2026.74 1393.92 1878.26 1393.92V1395.92Z" fill="#FEFBCC" mask="url(#path-7-inside-2_3632_4411)"/>
</g>
<path d="M1330.95 1102.22C1330.82 1097.34 1330.76 1092.45 1330.76 1087.54C1330.76 782.69 1575.88 579 1878.26 579C2180.64 579 2425.76 782.69 2425.76 1087.54C2425.76 1092.45 2425.7 1097.34 2425.57 1102.22L1330.95 1102.22Z" fill="url(#paint3_linear_3632_4411)"/>
<text fill="#15424A" style="white-space: pre" xml:space="preserve" font-family="Rajdhani" font-size="64" font-weight="bold" letter-spacing="0em"><tspan x="137.76" y="716">// Doc Layer 0, Meta Guide</tspan></text>
<text fill="#15424A" style="white-space: pre" xml:space="preserve" font-family="Figtree" font-size="32" font-weight="500" letter-spacing="0em"><tspan x="205.76" y="773.2">Teaches agents how to use the steering system</tspan></text>
<text fill="#15424A" style="white-space: pre" xml:space="preserve" font-family="Rajdhani" font-size="64" font-weight="bold" letter-spacing="0em"><tspan x="137.76" y="1024">// Doc Layer 2, Frameworks &#38; Patterns</tspan></text>
<text fill="#15424A" style="white-space: pre" xml:space="preserve" font-family="Figtree" font-size="32" font-weight="500" letter-spacing="0em"><tspan x="205.76" y="1081.2">Governance, process standards, token families, component standards, </tspan><tspan x="205.76" y="1129.2">and guides</tspan></text>
<text fill="#15424A" style="white-space: pre" xml:space="preserve" font-family="Rajdhani" font-size="64" font-weight="bold" letter-spacing="0em"><tspan x="2559.76" y="1088">// Doc Layer 3, Specific Implementations</tspan></text>
<text fill="#15424A" style="white-space: pre" xml:space="preserve" font-family="Figtree" font-size="32" font-weight="500" letter-spacing="0em"><tspan x="2627.76" y="1145.2">Individual token &#38; component families, development guides, &#10;</tspan><tspan x="2627.76" y="1193.2">and templates</tspan></text>
<text fill="#15424A" style="white-space: pre" xml:space="preserve" font-family="Rajdhani" font-size="64" font-weight="bold" letter-spacing="0em"><tspan x="137.732" y="1388">// Tooling</tspan></text>
<text fill="#15424A" style="white-space: pre" xml:space="preserve" font-family="Rajdhani" font-size="64" font-weight="bold" letter-spacing="0em"><tspan x="2559.76" y="780">// Doc Layer 1, Foundation</tspan></text>
<text fill="#15424A" style="white-space: pre" xml:space="preserve" font-family="Figtree" font-size="32" font-weight="500" letter-spacing="0em"><tspan x="2627.76" y="837.2">Goals, collaboration principles and protocols, and agent directory</tspan></text>
<text fill="black" style="white-space: pre" xml:space="preserve" font-family="Figtree" font-size="80" font-weight="900" letter-spacing="0em"><tspan x="137.76" y="180">Documentation MCP</tspan></text>
<text fill="#15424A" style="white-space: pre" xml:space="preserve" font-family="Figtree" font-size="32" font-weight="500" letter-spacing="0em"><tspan x="196.639" y="353.2">Markdown-based MCP documenting the full context of tokens, </tspan><tspan x="196.639" y="401.2">components, architecture, governance, etc.&#10;</tspan><tspan x="196.639" y="449.2">AI Agent Consumer: </tspan><tspan x="196.639" y="497.2">AI Agent Contributor: </tspan></text>
<text fill="#15424A" style="white-space: pre" xml:space="preserve" font-family="Figtree" font-size="32" font-weight="bold" letter-spacing="0em"><tspan x="496.326" y="449.2">All agents&#10;</tspan><tspan x="517.139" y="497.2">Ada, Lina, &#38; Thurgood</tspan></text>
<path d="M2638.76 1311H2639.26V1311.5H2638.76V1311ZM1875.76 1308.33C1877.23 1308.33 1878.43 1309.53 1878.43 1311C1878.43 1312.47 1877.23 1313.67 1875.76 1313.67C1874.29 1313.67 1873.09 1312.47 1873.09 1311C1873.09 1309.53 1874.29 1308.33 1875.76 1308.33ZM2638.76 1238H2639.26V1311H2638.76H2638.26V1238H2638.76ZM2638.76 1311V1311.5H1875.76V1311V1310.5H2638.76V1311Z" fill="black"/>
<path d="M220.26 817.625V817.125H219.26V817.625H219.76H220.26ZM219.76 892.87H219.26V893.37H219.76V892.87ZM1875.76 892.87H1876.26V892.37H1875.76V892.87ZM1875.76 1073.96C1874.29 1073.96 1873.09 1075.15 1873.09 1076.62C1873.09 1078.1 1874.29 1079.29 1875.76 1079.29C1877.23 1079.29 1878.43 1078.1 1878.43 1076.62C1878.43 1075.15 1877.23 1073.96 1875.76 1073.96ZM219.76 817.625H219.26V892.87H219.76H220.26V817.625H219.76ZM219.76 892.87V893.37L1875.76 893.37V892.87V892.37L219.76 892.37V892.87ZM1875.76 892.87H1875.26V1076.62H1875.76H1876.26V892.87H1875.76Z" fill="black"/>
<path d="M220.232 1450V1449.5H219.232V1450H219.732H220.232ZM219.732 1525H219.232V1525.5H219.732V1525ZM1875.73 1525V1525.5H1876.23V1525H1875.73ZM1875.73 1367.33C1874.26 1367.33 1873.07 1368.53 1873.07 1370C1873.07 1371.47 1874.26 1372.67 1875.73 1372.67C1877.21 1372.67 1878.4 1371.47 1878.4 1370C1878.4 1368.53 1877.21 1367.33 1875.73 1367.33ZM219.732 1450H219.232V1525H219.732H220.232V1450H219.732ZM219.732 1525V1525.5H1875.73V1525V1524.5H219.732V1525ZM1875.73 1525H1876.23V1370H1875.73H1875.23V1525H1875.73Z" fill="black"/>
<path d="M2638.26 882.125V881.625H2639.26V882.125H2638.76H2638.26ZM2638.76 957.009H2639.26V957.509H2638.76V957.009ZM2027.76 957.009H2027.26V956.509H2027.76V957.009ZM2027.76 1074.46C2029.23 1074.46 2030.43 1075.65 2030.43 1077.12C2030.43 1078.6 2029.23 1079.79 2027.76 1079.79C2026.29 1079.79 2025.09 1078.6 2025.09 1077.12C2025.09 1075.65 2026.29 1074.46 2027.76 1074.46ZM2638.76 882.125H2639.26V957.009H2638.76H2638.26V882.125H2638.76ZM2638.76 957.009V957.509H2027.76V957.009V956.509H2638.76V957.009ZM2027.76 957.009H2028.26V1077.12H2027.76H2027.26V957.009H2027.76Z" fill="black"/>
<path d="M219.76 1249H219.26V1249.5H219.76V1249ZM1875.76 1246.33C1874.29 1246.33 1873.09 1247.53 1873.09 1249C1873.09 1250.47 1874.29 1251.67 1875.76 1251.67C1877.23 1251.67 1878.43 1250.47 1878.43 1249C1878.43 1247.53 1877.23 1246.33 1875.76 1246.33ZM219.76 1174H219.26V1249H219.76H220.26V1174H219.76ZM219.76 1249V1249.5H1875.76V1249V1248.5H219.76V1249Z" fill="black"/>
<text fill="#15424A" style="white-space: pre" xml:space="preserve" font-family="Figtree" font-size="40" font-style="italic" font-weight="600" letter-spacing="0em"><tspan x="137.732" y="247">&#x201c;How the ecosystem and design system work.&#x201d;</tspan></text>
<path d="M1878.5 2545.7C2029.62 2545.7 2166.41 2578.96 2265.4 2632.7C2364.41 2686.46 2425.5 2760.64 2425.5 2842.45C2425.5 2924.26 2364.41 2998.44 2265.4 3052.19C2166.41 3105.93 2029.62 3139.19 1878.5 3139.19C1727.38 3139.19 1590.59 3105.93 1491.6 3052.19C1392.59 2998.44 1331.5 2924.26 1331.5 2842.45C1331.5 2760.64 1392.59 2686.46 1491.6 2632.7C1590.59 2578.96 1727.38 2545.7 1878.5 2545.7Z" fill="url(#paint4_linear_3632_4411)" stroke="#FEFBCC"/>
<path d="M1878.5 2598C2000.28 2598 2110.49 2624.67 2190.21 2667.74C2269.98 2710.82 2319 2770.18 2319 2835.5C2319 2900.82 2269.98 2960.18 2190.21 3003.27C2110.49 3046.33 2000.28 3073 1878.5 3073C1756.72 3073 1646.51 3046.33 1566.79 3003.27C1487.02 2960.18 1438 2900.82 1438 2835.5C1438 2770.18 1487.02 2710.82 1566.79 2667.74C1646.51 2624.67 1756.72 2598 1878.5 2598Z" stroke="#FEFBCC" stroke-width="2"/>
<path d="M1878.5 2666C1971.29 2666 2055.25 2685.79 2115.98 2717.73C2176.75 2749.69 2214 2793.68 2214 2842C2214 2890.32 2176.75 2934.31 2115.98 2966.27C2055.25 2998.21 1971.29 3018 1878.5 3018C1785.71 3018 1701.75 2998.21 1641.02 2966.27C1580.25 2934.31 1543 2890.32 1543 2842C1543 2793.68 1580.25 2749.69 1641.02 2717.73C1701.75 2685.79 1785.71 2666 1878.5 2666Z" stroke="#FEFBCC" stroke-width="2"/>
<g filter="url(#filter2_d_3632_4411)">
<mask id="path-30-inside-3_3632_4411" fill="white">
<path d="M1878.17 2671.16C1993.7 2671.16 2089.34 2748.41 2105.77 2849.07C2106.36 2851.73 2106.74 2854.41 2106.9 2857.12C2107.06 2858.43 2107.21 2859.75 2107.33 2861.06C2107.23 2860.48 2107.11 2859.9 2106.99 2859.32C2107 2859.61 2107 2859.9 2107 2860.19C2107 2919.03 2004.55 2966.73 1878.16 2966.73C1751.78 2966.73 1649.33 2919.03 1649.33 2860.19C1649.33 2859.91 1649.33 2859.64 1649.33 2859.36C1649.21 2859.93 1649.1 2860.49 1649 2861.06C1649.13 2859.79 1649.26 2858.52 1649.41 2857.26C1649.58 2854.46 1649.97 2851.68 1650.59 2848.94C1667.07 2748.34 1762.69 2671.16 1878.17 2671.16Z"/>
</mask>
<path d="M1878.17 2671.16C1993.7 2671.16 2089.34 2748.41 2105.77 2849.07C2106.36 2851.73 2106.74 2854.41 2106.9 2857.12C2107.06 2858.43 2107.21 2859.75 2107.33 2861.06C2107.23 2860.48 2107.11 2859.9 2106.99 2859.32C2107 2859.61 2107 2859.9 2107 2860.19C2107 2919.03 2004.55 2966.73 1878.16 2966.73C1751.78 2966.73 1649.33 2919.03 1649.33 2860.19C1649.33 2859.91 1649.33 2859.64 1649.33 2859.36C1649.21 2859.93 1649.1 2860.49 1649 2861.06C1649.13 2859.79 1649.26 2858.52 1649.41 2857.26C1649.58 2854.46 1649.97 2851.68 1650.59 2848.94C1667.07 2748.34 1762.69 2671.16 1878.17 2671.16Z" fill="url(#paint5_radial_3632_4411)"/>
<path d="M1878.17 2671.16V2669.16V2669.16V2671.16ZM2105.77 2849.07L2103.79 2849.39L2103.8 2849.45L2103.81 2849.51L2105.77 2849.07ZM2106.9 2857.12L2104.91 2857.24L2104.91 2857.3L2104.92 2857.36L2106.9 2857.12ZM2107.33 2861.06L2105.37 2861.42L2109.33 2860.87L2107.33 2861.06ZM2106.99 2859.32L2108.95 2858.9L2104.99 2859.35L2106.99 2859.32ZM2107 2860.19H2109V2860.19H2107ZM1878.16 2966.73V2968.73V2968.73V2966.73ZM1649.33 2860.19H1647.33V2860.19H1649.33ZM1649.33 2859.36L1651.33 2859.39L1647.38 2858.95L1649.33 2859.36ZM1649 2861.06L1647.01 2860.87L1650.97 2861.42L1649 2861.06ZM1649.41 2857.26L1651.4 2857.49L1651.41 2857.43L1651.41 2857.37L1649.41 2857.26ZM1650.59 2848.94L1652.54 2849.38L1652.55 2849.32L1652.56 2849.26L1650.59 2848.94ZM1878.17 2671.16V2673.16C1992.85 2673.16 2087.55 2749.82 2103.79 2849.39L2105.77 2849.07L2107.74 2848.75C2091.14 2747 1994.55 2669.16 1878.17 2669.16V2671.16ZM2105.77 2849.07L2103.81 2849.51C2104.38 2852.06 2104.75 2854.64 2104.91 2857.24L2106.9 2857.12L2108.9 2857C2108.73 2854.18 2108.33 2851.39 2107.72 2848.64L2105.77 2849.07ZM2106.9 2857.12L2104.92 2857.36C2105.07 2858.66 2105.22 2859.96 2105.34 2861.26L2107.33 2861.06L2109.33 2860.87C2109.19 2859.54 2109.05 2858.21 2108.89 2856.88L2106.9 2857.12ZM2107.33 2861.06L2109.3 2860.71C2109.19 2860.1 2109.07 2859.5 2108.95 2858.9L2106.99 2859.32L2105.03 2859.73C2105.15 2860.3 2105.27 2860.86 2105.37 2861.42L2107.33 2861.06ZM2106.99 2859.32L2104.99 2859.35C2105 2859.64 2105 2859.92 2105 2860.19H2107H2109C2109 2859.88 2109 2859.58 2108.99 2859.28L2106.99 2859.32ZM2107 2860.19H2105C2105 2888.37 2080.39 2914.51 2039.13 2933.71C1998.04 2952.85 1941.13 2964.73 1878.16 2964.73V2966.73V2968.73C1941.58 2968.73 1999.09 2956.77 2040.82 2937.34C2082.39 2917.99 2109 2890.85 2109 2860.19H2107ZM1878.16 2966.73V2964.73C1815.2 2964.73 1758.29 2952.85 1717.2 2933.71C1675.94 2914.51 1651.33 2888.37 1651.33 2860.19H1649.33H1647.33C1647.33 2890.85 1673.94 2917.99 1715.51 2937.34C1757.24 2956.77 1814.75 2968.73 1878.16 2968.73V2966.73ZM1649.33 2860.19H1651.33C1651.33 2859.92 1651.33 2859.66 1651.33 2859.39L1649.33 2859.36L1647.34 2859.33C1647.33 2859.61 1647.33 2859.9 1647.33 2860.19H1649.33ZM1649.33 2859.36L1647.38 2858.95C1647.25 2859.53 1647.14 2860.12 1647.03 2860.71L1649 2861.06L1650.97 2861.42C1651.07 2860.87 1651.18 2860.32 1651.29 2859.77L1649.33 2859.36ZM1649 2861.06L1650.99 2861.26C1651.11 2860 1651.25 2858.75 1651.4 2857.49L1649.41 2857.26L1647.43 2857.02C1647.28 2858.3 1647.14 2859.58 1647.01 2860.87L1649 2861.06ZM1649.41 2857.26L1651.41 2857.37C1651.57 2854.68 1651.95 2852.02 1652.54 2849.38L1650.59 2848.94L1648.64 2848.5C1648 2851.35 1647.59 2854.23 1647.42 2857.14L1649.41 2857.26ZM1650.59 2848.94L1652.56 2849.26C1668.87 2749.75 1763.54 2673.16 1878.17 2673.16V2671.16V2669.16C1761.84 2669.16 1665.28 2746.93 1648.62 2848.61L1650.59 2848.94Z" fill="#FEFBCC" mask="url(#path-30-inside-3_3632_4411)"/>
</g>
<g filter="url(#filter3_d_3632_4411)">
<mask id="path-32-inside-4_3632_4411" fill="white">
<path d="M2425.81 2839.48C2425.94 2844.36 2426 2849.25 2426 2854.17C2426 3159.01 2180.88 3406.14 1878.5 3406.14C1576.12 3406.14 1331 3159.01 1331 2854.17C1331 2849.25 1331.06 2844.36 1331.19 2839.48C1338.91 3001.71 1581 3131.92 1878.5 3131.92C2176 3131.92 2418.09 3001.71 2425.81 2839.48Z"/>
</mask>
<path d="M2425.81 2839.48C2425.94 2844.36 2426 2849.25 2426 2854.17C2426 3159.01 2180.88 3406.14 1878.5 3406.14C1576.12 3406.14 1331 3159.01 1331 2854.17C1331 2849.25 1331.06 2844.36 1331.19 2839.48C1338.91 3001.71 1581 3131.92 1878.5 3131.92C2176 3131.92 2418.09 3001.71 2425.81 2839.48Z" fill="url(#paint6_radial_3632_4411)"/>
<path d="M2425.81 2839.48L2427.81 2839.42L2423.81 2839.38L2425.81 2839.48ZM2426 2854.17H2428V2854.17L2426 2854.17ZM1878.5 3406.14V3408.14V3408.14V3406.14ZM1331 2854.17L1329 2854.17V2854.17H1331ZM1331.19 2839.48L1333.19 2839.38L1329.19 2839.42L1331.19 2839.48ZM1878.5 3131.92V3133.92V3133.92V3131.92ZM2425.81 2839.48L2423.81 2839.53C2423.94 2844.39 2424 2849.27 2424 2854.17L2426 2854.17L2428 2854.17C2428 2849.24 2427.93 2844.32 2427.81 2839.42L2425.81 2839.48ZM2426 2854.17H2424C2424 3157.92 2179.76 3404.14 1878.5 3404.14V3406.14V3408.14C2182 3408.14 2428 3160.1 2428 2854.17H2426ZM1878.5 3406.14V3404.14C1577.24 3404.14 1333 3157.92 1333 2854.17H1331H1329C1329 3160.1 1575 3408.14 1878.5 3408.14V3406.14ZM1331 2854.17L1333 2854.17C1333 2849.27 1333.06 2844.39 1333.19 2839.53L1331.19 2839.48L1329.19 2839.42C1329.06 2844.32 1329 2849.24 1329 2854.17L1331 2854.17ZM1331.19 2839.48L1329.19 2839.57C1333.1 2921.71 1396.29 2995.32 1495.23 3048.3C1594.25 3101.31 1729.48 3133.92 1878.5 3133.92V3131.92V3129.92C1730.02 3129.92 1595.45 3097.42 1497.12 3044.77C1398.71 2992.08 1337 2919.47 1333.19 2839.38L1331.19 2839.48ZM1878.5 3131.92V3133.92C2027.52 3133.92 2162.75 3101.31 2261.77 3048.3C2360.71 2995.32 2423.9 2921.71 2427.81 2839.57L2425.81 2839.48L2423.81 2839.38C2420 2919.47 2358.28 2992.08 2259.88 3044.77C2161.55 3097.42 2026.98 3129.92 1878.5 3129.92V3131.92Z" fill="#FEFBCC" mask="url(#path-32-inside-4_3632_4411)"/>
</g>
<path d="M1331.19 2838.22C1331.06 2833.34 1331 2828.45 1331 2823.54C1331 2518.69 1576.12 2315 1878.5 2315C2180.88 2315 2426 2518.69 2426 2823.54C2426 2828.45 2425.94 2833.34 2425.81 2838.22L1331.19 2838.22Z" fill="url(#paint7_linear_3632_4411)"/>
<text fill="#15424A" style="white-space: pre" xml:space="preserve" font-family="Rajdhani" font-size="64" font-weight="bold" letter-spacing="0em"><tspan x="1356" y="2162">// Data Sources</tspan></text>
<text fill="#15424A" style="white-space: pre" xml:space="preserve" font-family="Figtree" font-size="32" font-weight="500" letter-spacing="0em"><tspan x="1427" y="2227.2">Component, pattern, guidance, and template data streams from </tspan><tspan x="1427" y="2275.2">core design system</tspan></text>
<path d="M1876 2336.14H1876.5V2335.64H1876V2336.14ZM1876 2835.33C1874.53 2835.33 1873.33 2836.53 1873.33 2838C1873.33 2839.47 1874.53 2840.67 1876 2840.67C1877.47 2840.67 1878.67 2839.47 1878.67 2838C1878.67 2836.53 1877.47 2835.33 1876 2835.33ZM1443 2336.14H1442.5V2336.64H1443V2336.14ZM1443.5 2309V2308.5H1442.5V2309H1443H1443.5ZM1876 2336.14H1875.5V2838H1876H1876.5V2336.14H1876ZM1876 2336.14V2335.64H1443V2336.14V2336.64H1876V2336.14ZM1443 2336.14H1443.5V2309H1443H1442.5V2336.14H1443Z" fill="black"/>
<path d="M215.5 2663V2662.5H214.5V2663H215H215.5ZM215 2699.65H214.5V2700.15H215V2699.65ZM1605 2699.65H1605.5V2699.15H1605V2699.65ZM1605 2835.33C1603.53 2835.33 1602.33 2836.53 1602.33 2838C1602.33 2839.47 1603.53 2840.67 1605 2840.67C1606.47 2840.67 1607.67 2839.47 1607.67 2838C1607.67 2836.53 1606.47 2835.33 1605 2835.33ZM215 2663H214.5V2699.65H215H215.5V2663H215ZM215 2699.65V2700.15H1605V2699.65V2699.15H215V2699.65ZM1605 2699.65H1604.5V2838H1605H1605.5V2699.65H1605Z" fill="black"/>
<text fill="#15424A" style="white-space: pre" xml:space="preserve" font-family="Rajdhani" font-size="64" font-weight="bold" letter-spacing="0em"><tspan x="138" y="2569">// Indexer Pipeline</tspan></text>
<text fill="#15424A" style="white-space: pre" xml:space="preserve" font-family="Figtree" font-size="32" font-weight="500" letter-spacing="0em"><tspan x="206" y="2626.2">Three-pass orchestrator</tspan></text>
<path d="M2732.27 3048H2732.77V3048.5H2732.27V3048ZM1876.27 3045.33C1877.74 3045.33 1878.93 3046.53 1878.93 3048C1878.93 3049.47 1877.74 3050.67 1876.27 3050.67C1874.79 3050.67 1873.6 3049.47 1873.6 3048C1873.6 3046.53 1874.79 3045.33 1876.27 3045.33ZM2732.27 2711H2732.77V3048H2732.27H2731.77V2711H2732.27ZM2732.27 3048V3048.5H1876.27V3048V3047.5H2732.27V3048Z" fill="black"/>
<text fill="#15424A" style="white-space: pre" xml:space="preserve" font-family="Rajdhani" font-size="64" font-weight="bold" letter-spacing="0em"><tspan x="2653" y="2657">// Tooling</tspan></text>
<path d="M215.268 3104H214.768V3104.5H215.268V3104ZM1879.27 3101.33C1877.79 3101.33 1876.6 3102.53 1876.6 3104C1876.6 3105.47 1877.79 3106.67 1879.27 3106.67C1880.74 3106.67 1881.93 3105.47 1881.93 3104C1881.93 3102.53 1880.74 3101.33 1879.27 3101.33ZM215.268 3066H214.768V3104H215.268H215.768V3066H215.268ZM215.268 3104V3104.5H1879.27V3104V3103.5H215.268V3104Z" fill="black"/>
<text fill="#15424A" style="white-space: pre" xml:space="preserve" font-family="Rajdhani" font-size="64" font-weight="bold" letter-spacing="0em"><tspan x="138.268" y="2924">// Query Engine Layer</tspan></text>
<text fill="#15424A" style="white-space: pre" xml:space="preserve" font-family="Figtree" font-size="32" font-weight="500" letter-spacing="0em"><tspan x="206.268" y="2981.2">Wraps the indexer with metrics, error handling, and progressive </tspan><tspan x="206.268" y="3029.2">disclosure loading</tspan></text>
<text fill="#15424A" style="white-space: pre" xml:space="preserve" font-family="Rajdhani" font-size="64" font-weight="bold" letter-spacing="0em"><tspan x="138" y="3467">// File Watcher</tspan></text>
<text fill="#15424A" style="white-space: pre" xml:space="preserve" font-family="Rajdhani" font-size="64" font-weight="bold" letter-spacing="0em"><tspan x="2697" y="3462">// Tool Validator</tspan></text>
<path d="M1601 3611L1600 3611L1600 3613L1601 3613L1601 3612L1601 3611ZM1803 3612L1803 3613L1804 3613L1804 3612L1803 3612ZM1803.71 3431.29C1803.32 3430.9 1802.68 3430.9 1802.29 3431.29L1795.93 3437.66C1795.54 3438.05 1795.54 3438.68 1795.93 3439.07C1796.32 3439.46 1796.95 3439.46 1797.34 3439.07L1803 3433.41L1808.66 3439.07C1809.05 3439.46 1809.68 3439.46 1810.07 3439.07C1810.46 3438.68 1810.46 3438.05 1810.07 3437.66L1803.71 3431.29ZM1601 3612L1601 3613L1803 3613L1803 3612L1803 3611L1601 3611L1601 3612ZM1803 3612L1804 3612L1804 3432L1803 3432L1802 3432L1802 3612L1803 3612Z" fill="black"/>
<path d="M2143 3611L2144 3611L2144 3613L2143 3613L2143 3612L2143 3611ZM1941 3612L1941 3613L1940 3613L1940 3612L1941 3612ZM1940.29 3431.29C1940.68 3430.9 1941.32 3430.9 1941.71 3431.29L1948.07 3437.66C1948.46 3438.05 1948.46 3438.68 1948.07 3439.07C1947.68 3439.46 1947.05 3439.46 1946.66 3439.07L1941 3433.41L1935.34 3439.07C1934.95 3439.46 1934.32 3439.46 1933.93 3439.07C1933.54 3438.68 1933.54 3438.05 1933.93 3437.66L1940.29 3431.29ZM2143 3612L2143 3613L1941 3613L1941 3612L1941 3611L2143 3611L2143 3612ZM1941 3612L1940 3612L1940 3432L1941 3432L1942 3432L1942 3612L1941 3612Z" fill="black"/>
<text fill="#15424A" style="white-space: pre" xml:space="preserve" font-family="Figtree" font-size="32" font-weight="500" letter-spacing="0em"><tspan x="186" y="2201.2">YAML-based MCP to direct agents to directory of tokens and </tspan><tspan x="186" y="2249.2">components, templates, foundational guidance, etc&#10;</tspan><tspan x="186" y="2297.2">AI Agent Consumer: </tspan><tspan x="186" y="2345.2">AI Agent Contributor: </tspan></text>
<text fill="#15424A" style="white-space: pre" xml:space="preserve" font-family="Figtree" font-size="32" font-weight="bold" letter-spacing="0em"><tspan x="485.688" y="2297.2">Leonardo&#10;</tspan><tspan x="506.5" y="2345.2">Ada &#38; Lina</tspan></text>
<text fill="black" style="white-space: pre" xml:space="preserve" font-family="Figtree" font-size="80" font-weight="900" letter-spacing="0em"><tspan x="138" y="2028">Application MCP</tspan></text>
<g filter="url(#filter4_d_3632_4411)">
<path d="M1391.67 3390.42C1397.47 3387.19 1404.62 3387.19 1410.42 3390.42L1600.64 3496.36C1602.09 3497.17 1602.99 3498.66 1602.99 3500.27V3719.97C1602.99 3721.59 1602.09 3723.08 1600.64 3723.89L1403.39 3833.74C1401.94 3834.55 1400.15 3834.55 1398.7 3833.74L1201.44 3723.89C1199.99 3723.08 1199.1 3721.59 1199.1 3719.97V3500.27C1199.1 3498.66 1199.99 3497.17 1201.44 3496.36L1391.67 3390.42Z" fill="url(#paint8_linear_3632_4411)"/>
</g>
<path d="M1199.9 3496.81L1401.86 3631.72L1401.86 3835" stroke="#FEFBCC" stroke-width="2"/>
<path d="M1602.15 3497.32L1401.87 3631.69L1401.87 3834.89" stroke="#FEFBCC" stroke-width="2"/>
<g filter="url(#filter5_d_3632_4411)">
<path d="M2335.67 3390.42C2341.47 3387.19 2348.62 3387.19 2354.42 3390.42L2544.64 3496.36C2546.09 3497.17 2546.99 3498.66 2546.99 3500.27V3719.97C2546.99 3721.59 2546.09 3723.08 2544.64 3723.89L2347.39 3833.74C2345.94 3834.55 2344.15 3834.55 2342.7 3833.74L2145.44 3723.89C2143.99 3723.08 2143.1 3721.59 2143.1 3719.97V3500.27C2143.1 3498.66 2143.99 3497.17 2145.44 3496.36L2335.67 3390.42Z" fill="url(#paint9_linear_3632_4411)"/>
</g>
<path d="M2143.9 3496.81L2345.86 3631.72L2345.86 3835" stroke="#FEFBCC" stroke-width="2"/>
<path d="M2546.15 3497.32L2345.87 3631.69L2345.87 3834.89" stroke="#FEFBCC" stroke-width="2"/>
<path d="M225 3553H224.5V3553.5H225V3553ZM1239 3550.33C1237.53 3550.33 1236.33 3551.53 1236.33 3553C1236.33 3554.47 1237.53 3555.67 1239 3555.67C1240.47 3555.67 1241.67 3554.47 1241.67 3553C1241.67 3551.53 1240.47 3550.33 1239 3550.33ZM225 3513H224.5V3553H225H225.5V3513H225ZM225 3553V3553.5H1239V3553V3552.5H225V3553Z" fill="black"/>
<path d="M2781 3548H2781.5V3548.5H2781V3548ZM2501 3545.33C2502.47 3545.33 2503.67 3546.53 2503.67 3548C2503.67 3549.47 2502.47 3550.67 2501 3550.67C2499.53 3550.67 2498.33 3549.47 2498.33 3548C2498.33 3546.53 2499.53 3545.33 2501 3545.33ZM2781 3508H2781.5V3548H2781H2780.5V3508H2781ZM2781 3548V3548.5H2501V3548V3547.5H2781V3548Z" fill="black"/>
<text fill="#15424A" style="white-space: pre" xml:space="preserve" font-family="Rajdhani" font-size="64" font-weight="bold" letter-spacing="0em"><tspan x="141" y="4909">// Principles</tspan></text>
<text fill="#15424A" style="white-space: pre" xml:space="preserve" font-family="Figtree" font-size="32" font-weight="500" letter-spacing="0em"><tspan x="209" y="4966.2">Design direction</tspan></text>
<text fill="#15424A" style="white-space: pre" xml:space="preserve" font-family="Rajdhani" font-size="64" font-weight="bold" letter-spacing="0em"><tspan x="1359" y="4502">// Overview</tspan></text>
<text fill="#15424A" style="white-space: pre" xml:space="preserve" font-family="Figtree" font-size="32" font-weight="500" letter-spacing="0em"><tspan x="1430" y="4567.2">Product identity and configuration</tspan></text>
<path d="M1827.5 4892.7C1978.62 4892.7 2115.41 4925.96 2214.4 4979.7C2313.41 5033.46 2374.5 5107.63 2374.5 5189.45C2374.5 5271.26 2313.41 5345.44 2214.4 5399.19C2115.41 5452.93 1978.62 5486.19 1827.5 5486.19C1676.38 5486.19 1539.59 5452.93 1440.6 5399.19C1341.59 5345.44 1280.5 5271.26 1280.5 5189.45C1280.5 5107.63 1341.59 5033.46 1440.6 4979.7C1539.59 4925.96 1676.38 4892.7 1827.5 4892.7Z" fill="url(#paint10_linear_3632_4411)" stroke="#FEFBCC"/>
<path d="M1827.5 4985C1928.85 4985 2020.55 5007.19 2086.89 5043.02C2153.26 5078.87 2194 5128.23 2194 5182.5C2194 5236.77 2153.26 5286.13 2086.89 5321.98C2020.55 5357.81 1928.85 5380 1827.5 5380C1726.15 5380 1634.45 5357.81 1568.11 5321.98C1501.74 5286.13 1461 5236.77 1461 5182.5C1461 5128.23 1501.74 5078.87 1568.11 5043.02C1634.45 5007.19 1726.15 4985 1827.5 4985Z" stroke="#FFDAE8" stroke-width="2"/>
<path d="M1827.5 4951C1946.25 4951 2053.7 4977 2131.43 5018.98C2209.21 5060.98 2257 5118.84 2257 5182.5C2257 5246.16 2209.21 5304.02 2131.43 5346.02C2053.7 5388 1946.25 5414 1827.5 5414C1708.75 5414 1601.3 5388 1523.57 5346.02C1445.79 5304.02 1398 5246.16 1398 5182.5C1398 5118.84 1445.79 5060.98 1523.57 5018.98C1601.3 4977 1708.75 4951 1827.5 4951Z" stroke="#FFDAE8" stroke-width="2"/>
<path d="M1827.5 4918C1963.09 4918 2085.8 4947.69 2174.57 4995.64C2263.38 5043.62 2318 5109.73 2318 5182.5C2318 5255.27 2263.38 5321.38 2174.57 5369.36C2085.8 5417.31 1963.09 5447 1827.5 5447C1691.91 5447 1569.2 5417.31 1480.43 5369.36C1391.62 5321.38 1337 5255.27 1337 5182.5C1337 5109.73 1391.62 5043.62 1480.43 4995.64C1569.2 4947.69 1691.91 4918 1827.5 4918Z" stroke="#FFDAE8" stroke-width="2"/>
<path d="M1827.5 5035C1908.42 5035 1981.63 5052.32 2034.57 5080.28C2087.56 5108.27 2120 5146.75 2120 5189C2120 5231.25 2087.56 5269.73 2034.57 5297.72C1981.63 5325.68 1908.42 5343 1827.5 5343C1746.58 5343 1673.37 5325.68 1620.43 5297.72C1567.44 5269.73 1535 5231.25 1535 5189C1535 5146.75 1567.44 5108.27 1620.43 5080.28C1673.37 5052.32 1746.58 5035 1827.5 5035Z" stroke="#FFDAE8" stroke-width="2"/>
<path d="M1828 5072C1890 5072 1946.09 5085.18 1986.63 5106.45C2027.23 5127.74 2052 5156.97 2052 5189C2052 5221.03 2027.23 5250.26 1986.63 5271.55C1946.09 5292.82 1890 5306 1828 5306C1766 5306 1709.91 5292.82 1669.37 5271.55C1628.77 5250.26 1604 5221.03 1604 5189C1604 5156.97 1628.77 5127.74 1669.37 5106.45C1709.91 5085.18 1766 5072 1828 5072Z" stroke="#FFDAE8" stroke-width="2"/>
<g filter="url(#filter6_d_3632_4411)">
<mask id="path-70-inside-5_3632_4411" fill="white">
<path d="M1827.17 5063C1907.65 5063 1974.28 5116.81 1985.72 5186.94C1986.13 5188.79 1986.4 5190.67 1986.51 5192.56C1986.62 5193.47 1986.72 5194.38 1986.81 5195.29C1986.74 5194.88 1986.65 5194.47 1986.57 5194.07C1986.57 5194.27 1986.58 5194.47 1986.58 5194.68C1986.58 5235.67 1915.2 5268.9 1827.17 5268.9C1739.13 5268.9 1667.76 5235.67 1667.76 5194.68C1667.76 5194.48 1667.76 5194.29 1667.76 5194.1C1667.68 5194.49 1667.6 5194.89 1667.53 5195.29C1667.61 5194.42 1667.71 5193.55 1667.81 5192.68C1667.92 5190.72 1668.2 5188.78 1668.63 5186.85C1680.11 5116.77 1746.72 5063 1827.17 5063Z"/>
</mask>
<path d="M1827.17 5063C1907.65 5063 1974.28 5116.81 1985.72 5186.94C1986.13 5188.79 1986.4 5190.67 1986.51 5192.56C1986.62 5193.47 1986.72 5194.38 1986.81 5195.29C1986.74 5194.88 1986.65 5194.47 1986.57 5194.07C1986.57 5194.27 1986.58 5194.47 1986.58 5194.68C1986.58 5235.67 1915.2 5268.9 1827.17 5268.9C1739.13 5268.9 1667.76 5235.67 1667.76 5194.68C1667.76 5194.48 1667.76 5194.29 1667.76 5194.1C1667.68 5194.49 1667.6 5194.89 1667.53 5195.29C1667.61 5194.42 1667.71 5193.55 1667.81 5192.68C1667.92 5190.72 1668.2 5188.78 1668.63 5186.85C1680.11 5116.77 1746.72 5063 1827.17 5063Z" fill="url(#paint11_radial_3632_4411)"/>
<path d="M1827.17 5063V5061V5061V5063ZM1985.72 5186.94L1983.74 5187.26L1983.75 5187.32L1983.76 5187.37L1985.72 5186.94ZM1986.51 5192.56L1984.51 5192.68L1984.52 5192.74L1984.52 5192.8L1986.51 5192.56ZM1986.81 5195.29L1984.84 5195.64L1988.8 5195.09L1986.81 5195.29ZM1986.57 5194.07L1988.52 5193.65L1984.57 5194.1L1986.57 5194.07ZM1986.58 5194.68H1988.58V5194.68H1986.58ZM1827.17 5268.9V5270.9V5270.9V5268.9ZM1667.76 5194.68H1665.76V5194.68H1667.76ZM1667.76 5194.1L1669.76 5194.13L1665.81 5193.68L1667.76 5194.1ZM1667.53 5195.29L1665.54 5195.09L1669.5 5195.64L1667.53 5195.29ZM1667.81 5192.68L1669.8 5192.92L1669.81 5192.86L1669.81 5192.79L1667.81 5192.68ZM1668.63 5186.85L1670.58 5187.29L1670.6 5187.24L1670.61 5187.18L1668.63 5186.85ZM1827.17 5063V5065C1906.8 5065 1972.48 5118.22 1983.74 5187.26L1985.72 5186.94L1987.69 5186.62C1976.08 5115.4 1908.5 5061 1827.17 5061V5063ZM1985.72 5186.94L1983.76 5187.37C1984.16 5189.13 1984.41 5190.9 1984.51 5192.68L1986.51 5192.56L1988.51 5192.44C1988.39 5190.44 1988.1 5188.46 1987.67 5186.5L1985.72 5186.94ZM1986.51 5192.56L1984.52 5192.8C1984.63 5193.7 1984.73 5194.59 1984.82 5195.48L1986.81 5195.29L1988.8 5195.09C1988.71 5194.16 1988.6 5193.24 1988.5 5192.33L1986.51 5192.56ZM1986.81 5195.29L1988.78 5194.93C1988.7 5194.49 1988.61 5194.07 1988.52 5193.65L1986.57 5194.07L1984.61 5194.48C1984.69 5194.88 1984.77 5195.26 1984.84 5195.64L1986.81 5195.29ZM1986.57 5194.07L1984.57 5194.1C1984.57 5194.33 1984.58 5194.5 1984.58 5194.68H1986.58H1988.58C1988.58 5194.45 1988.57 5194.21 1988.57 5194.03L1986.57 5194.07ZM1986.58 5194.68H1984.58C1984.58 5213.93 1967.73 5231.99 1939.04 5245.35C1910.51 5258.63 1870.96 5266.9 1827.17 5266.9V5268.9V5270.9C1871.41 5270.9 1911.56 5262.55 1940.73 5248.97C1969.73 5235.47 1988.58 5216.41 1988.58 5194.68H1986.58ZM1827.17 5268.9V5266.9C1783.37 5266.9 1743.82 5258.63 1715.29 5245.35C1686.6 5231.99 1669.76 5213.93 1669.76 5194.68H1667.76H1665.76C1665.76 5216.41 1684.6 5235.47 1713.6 5248.97C1742.77 5262.55 1782.92 5270.9 1827.17 5270.9V5268.9ZM1667.76 5194.68H1669.76C1669.76 5194.5 1669.76 5194.33 1669.76 5194.13L1667.76 5194.1L1665.76 5194.06C1665.76 5194.25 1665.76 5194.46 1665.76 5194.68H1667.76ZM1667.76 5194.1L1665.81 5193.68C1665.72 5194.09 1665.64 5194.51 1665.56 5194.93L1667.53 5195.29L1669.5 5195.64C1669.56 5195.27 1669.64 5194.89 1669.72 5194.51L1667.76 5194.1ZM1667.53 5195.29L1669.52 5195.48C1669.6 5194.63 1669.7 5193.77 1669.8 5192.92L1667.81 5192.68L1665.83 5192.45C1665.72 5193.32 1665.62 5194.2 1665.54 5195.09L1667.53 5195.29ZM1667.81 5192.68L1669.81 5192.79C1669.91 5190.95 1670.18 5189.11 1670.58 5187.29L1668.63 5186.85L1666.68 5186.42C1666.23 5188.44 1665.93 5190.49 1665.82 5192.57L1667.81 5192.68ZM1668.63 5186.85L1670.61 5187.18C1681.9 5118.18 1747.57 5065 1827.17 5065V5063V5061C1745.87 5061 1678.31 5115.36 1666.66 5186.53L1668.63 5186.85Z" fill="#FFDAE8" mask="url(#path-70-inside-5_3632_4411)"/>
</g>
<g filter="url(#filter7_d_3632_4411)">
<mask id="path-72-inside-6_3632_4411" fill="white">
<path d="M2374.81 5186.48C2374.94 5191.36 2375 5196.25 2375 5201.17C2375 5506.01 2129.88 5753.14 1827.5 5753.14C1525.12 5753.14 1280 5506.01 1280 5201.17C1280 5196.25 1280.06 5191.36 1280.19 5186.48C1287.91 5348.71 1530 5478.92 1827.5 5478.92C2125 5478.92 2367.09 5348.71 2374.81 5186.48Z"/>
</mask>
<path d="M2374.81 5186.48C2374.94 5191.36 2375 5196.25 2375 5201.17C2375 5506.01 2129.88 5753.14 1827.5 5753.14C1525.12 5753.14 1280 5506.01 1280 5201.17C1280 5196.25 1280.06 5191.36 1280.19 5186.48C1287.91 5348.71 1530 5478.92 1827.5 5478.92C2125 5478.92 2367.09 5348.71 2374.81 5186.48Z" fill="url(#paint12_radial_3632_4411)"/>
<path d="M2374.81 5186.48L2376.81 5186.42L2372.81 5186.38L2374.81 5186.48ZM2375 5201.17L2377 5201.17V5201.17H2375ZM1827.5 5753.14V5755.14V5755.14V5753.14ZM1280 5201.17H1278V5201.17L1280 5201.17ZM1280.19 5186.48L1282.19 5186.38L1278.19 5186.42L1280.19 5186.48ZM1827.5 5478.92V5480.92V5480.92V5478.92ZM2374.81 5186.48L2372.81 5186.53C2372.94 5191.39 2373 5196.27 2373 5201.17H2375H2377C2377 5196.24 2376.93 5191.32 2376.81 5186.42L2374.81 5186.48ZM2375 5201.17L2373 5201.17C2373 5504.92 2128.76 5751.14 1827.5 5751.14V5753.14V5755.14C2131 5755.14 2377 5507.1 2377 5201.17L2375 5201.17ZM1827.5 5753.14V5751.14C1526.24 5751.14 1282 5504.92 1282 5201.17L1280 5201.17L1278 5201.17C1278 5507.1 1524 5755.14 1827.5 5755.14V5753.14ZM1280 5201.17H1282C1282 5196.27 1282.06 5191.39 1282.19 5186.53L1280.19 5186.48L1278.19 5186.42C1278.06 5191.32 1278 5196.24 1278 5201.17H1280ZM1280.19 5186.48L1278.19 5186.57C1282.1 5268.71 1345.29 5342.32 1444.23 5395.29C1543.25 5448.31 1678.48 5480.92 1827.5 5480.92V5478.92V5476.92C1679.02 5476.92 1544.45 5444.42 1446.12 5391.77C1347.71 5339.08 1286 5266.47 1282.19 5186.38L1280.19 5186.48ZM1827.5 5478.92V5480.92C1976.52 5480.92 2111.75 5448.31 2210.77 5395.29C2309.71 5342.32 2372.9 5268.71 2376.81 5186.57L2374.81 5186.48L2372.81 5186.38C2369 5266.47 2307.28 5339.08 2208.88 5391.77C2110.55 5444.42 1975.98 5476.92 1827.5 5476.92V5478.92Z" fill="#FEFBCC" mask="url(#path-72-inside-6_3632_4411)"/>
</g>
<path d="M1280.19 5185.22C1280.06 5180.34 1280 5175.45 1280 5170.54C1280 4865.69 1525.12 4662 1827.5 4662C2129.88 4662 2375 4865.69 2375 5170.54C2375 5175.45 2374.94 5180.34 2374.81 5185.22L1280.19 5185.22Z" fill="url(#paint13_linear_3632_4411)"/>
<path d="M2735 5188H2735.5V5188.5H2735V5188ZM2158.5 5185.33C2159.97 5185.33 2161.17 5186.53 2161.17 5188C2161.17 5189.47 2159.97 5190.67 2158.5 5190.67C2157.03 5190.67 2155.83 5189.47 2155.83 5188C2155.83 5186.53 2157.03 5185.33 2158.5 5185.33ZM2735 5051H2735.5V5188H2735H2734.5V5051H2735ZM2735 5188V5188.5H2158.5V5188V5187.5H2735V5188Z" fill="black"/>
<text fill="#15424A" style="white-space: pre" xml:space="preserve" font-family="Rajdhani" font-size="64" font-weight="bold" letter-spacing="0em"><tspan x="2656" y="4909">// Templates</tspan></text>
<text fill="#15424A" style="white-space: pre" xml:space="preserve" font-family="Figtree" font-size="32" font-weight="500" letter-spacing="0em"><tspan x="2724" y="4966.2">Product-specific layout patterns</tspan></text>
<path d="M2734.5 5536.09C2734.5 5535.81 2734.72 5535.59 2735 5535.59C2735.28 5535.59 2735.5 5535.81 2735.5 5536.09H2735H2734.5ZM2735 5589H2735.5V5589.5H2735V5589ZM2159 5589V5589.5H2158.5V5589H2159ZM2159 5300.33C2160.47 5300.33 2161.67 5301.53 2161.67 5303C2161.67 5304.47 2160.47 5305.67 2159 5305.67C2157.53 5305.67 2156.33 5304.47 2156.33 5303C2156.33 5301.53 2157.53 5300.33 2159 5300.33ZM2735 5536.09H2735.5V5589H2735H2734.5V5536.09H2735ZM2735 5589V5589.5H2159V5589V5588.5H2735V5589ZM2159 5589H2158.5V5303H2159H2159.5V5589H2159Z" fill="black"/>
<path d="M2734.5 5986.09C2734.5 5985.81 2734.72 5985.59 2735 5985.59C2735.28 5985.59 2735.5 5985.81 2735.5 5986.09H2735H2734.5ZM2735 6039H2735.5V6039.5H2735V6039ZM1869 6039V6039.5H1868.5V6039H1869ZM1869 5460.33C1870.47 5460.33 1871.67 5461.53 1871.67 5463C1871.67 5464.47 1870.47 5465.67 1869 5465.67C1867.53 5465.67 1866.33 5464.47 1866.33 5463C1866.33 5461.53 1867.53 5460.33 1869 5460.33ZM2735 5986.09H2735.5V6039H2735H2734.5V5986.09H2735ZM2735 6039V6039.5H1869V6039V6038.5H2735V6039ZM1869 6039H1868.5V5463H1869H1869.5V6039H1869Z" fill="black"/>
<text fill="#15424A" style="white-space: pre" xml:space="preserve" font-family="Rajdhani" font-size="64" font-weight="bold" letter-spacing="0em"><tspan x="2656" y="5434">// Domain Context</tspan></text>
<text fill="#15424A" style="white-space: pre" xml:space="preserve" font-family="Figtree" font-size="32" font-weight="500" letter-spacing="0em"><tspan x="2724" y="5491.2">Business entities and objects</tspan></text>
<text fill="#15424A" style="white-space: pre" xml:space="preserve" font-family="Rajdhani" font-size="64" font-weight="bold" letter-spacing="0em"><tspan x="2656" y="5935">// Tooling</tspan></text>
<path d="M218.5 5366V5365.5H217.5V5366H218H218.5ZM218 5404H217.5V5404.5H218V5404ZM1635 5404V5404.5H1635.5V5404H1635ZM1635 5281.33C1633.53 5281.33 1632.33 5282.53 1632.33 5284C1632.33 5285.47 1633.53 5286.67 1635 5286.67C1636.47 5286.67 1637.67 5285.47 1637.67 5284C1637.67 5282.53 1636.47 5281.33 1635 5281.33ZM218 5366H217.5V5404H218H218.5V5366H218ZM218 5404V5404.5H1635V5404V5403.5H218V5404ZM1635 5404H1635.5V5284H1635H1634.5V5404H1635Z" fill="black"/>
<text fill="#15424A" style="white-space: pre" xml:space="preserve" font-family="Rajdhani" font-size="64" font-weight="bold" letter-spacing="0em"><tspan x="141" y="5264">// Experience Mapping</tspan></text>
<text fill="#15424A" style="white-space: pre" xml:space="preserve" font-family="Figtree" font-size="32" font-weight="500" letter-spacing="0em"><tspan x="209" y="5321.2">Collection of the product&#x2019;s mission-critical experiences and flows</tspan></text>
<path d="M215 5831H214.5V5831.5H215V5831ZM1769 5831V5831.5H1769.5V5831H1769ZM1769 5430.33C1767.53 5430.33 1766.33 5431.53 1766.33 5433C1766.33 5434.47 1767.53 5435.67 1769 5435.67C1770.47 5435.67 1771.67 5434.47 1771.67 5433C1771.67 5431.53 1770.47 5430.33 1769 5430.33ZM215 5793H214.5V5831H215H215.5V5793H215ZM215 5831V5831.5H1769V5831V5830.5H215V5831ZM1769 5831H1769.5V5433H1769H1768.5V5831H1769Z" fill="black"/>
<text fill="#15424A" style="white-space: pre" xml:space="preserve" font-family="Rajdhani" font-size="64" font-weight="bold" letter-spacing="0em"><tspan x="138" y="5699">// Domain Components</tspan></text>
<text fill="#15424A" style="white-space: pre" xml:space="preserve" font-family="Figtree" font-size="32" font-weight="500" letter-spacing="0em"><tspan x="206" y="5756.2">One-off product components based on Stemma governance</tspan></text>
<path d="M1825 4641.04H1825.5V4640.54H1825V4641.04ZM1825 5175.33C1823.53 5175.33 1822.33 5176.53 1822.33 5178C1822.33 5179.47 1823.53 5180.67 1825 5180.67C1826.47 5180.67 1827.67 5179.47 1827.67 5178C1827.67 5176.53 1826.47 5175.33 1825 5175.33ZM1446 4641.04H1445.5V4641.54H1446V4641.04ZM1446.5 4612V4611.5H1445.5V4612H1446H1446.5ZM1825 4641.04H1824.5V5178H1825H1825.5V4641.04H1825ZM1825 4641.04V4640.54H1446V4641.04V4641.54H1825V4641.04ZM1446 4641.04H1446.5V4612H1446H1445.5V4641.04H1446Z" fill="black"/>
<path d="M218.5 5003V5002.5H217.5V5003H218H218.5ZM218 5039.65H217.5V5040.15H218V5039.65ZM1636 5039.65H1636.5V5039.15H1636V5039.65ZM1636 5175.33C1634.53 5175.33 1633.33 5176.53 1633.33 5178C1633.33 5179.47 1634.53 5180.67 1636 5180.67C1637.47 5180.67 1638.67 5179.47 1638.67 5178C1638.67 5176.53 1637.47 5175.33 1636 5175.33ZM218 5003H217.5V5039.65H218H218.5V5003H218ZM218 5039.65V5040.15H1636V5039.65V5039.15H218V5039.65ZM1636 5039.65H1635.5V5178H1636H1636.5V5039.65H1636Z" fill="black"/>
<text fill="black" style="white-space: pre" xml:space="preserve" font-family="Figtree" font-size="104" font-weight="900" letter-spacing="0em"><tspan x="141" y="4390.9">Product MCP</tspan></text>
<text fill="#15424A" style="white-space: pre" xml:space="preserve" font-family="Figtree" font-size="32" font-weight="500" letter-spacing="0em"><tspan x="189" y="4541.2">Product intelligence layer of the product&#x2019;s user experience&#10;</tspan><tspan x="189" y="4589.2">Integration point between DesignerPunk and the product&#10;</tspan><tspan x="189" y="4637.2">AI Agent Manager: </tspan></text>
<text fill="#15424A" style="white-space: pre" xml:space="preserve" font-family="Figtree" font-size="32" font-weight="bold" letter-spacing="0em"><tspan x="465.812" y="4637.2">Leonardo</tspan></text>
<text fill="#15424A" style="white-space: pre" xml:space="preserve" font-family="Figtree" font-size="40" font-style="italic" font-weight="600" letter-spacing="0em"><tspan x="141" y="4464">&#x201c;What we&#x2019;re building.&#x201d;</tspan></text>
<defs>
<filter id="filter0_d_3632_4411" x="1719.66" y="953" width="316.531" height="243.897" filterUnits="userSpaceOnUse" color-interpolation-filters="sRGB">
<feFlood flood-opacity="0" result="BackgroundImageFix"/>
<feColorMatrix in="SourceAlpha" type="matrix" values="0 0 0 0 0 0 0 0 0 0 0 0 0 0 0 0 0 0 127 0" result="hardAlpha"/>
<feOffset dy="-8"/>
<feGaussianBlur stdDeviation="28"/>
<feComposite in2="hardAlpha" operator="out"/>
<feColorMatrix type="matrix" values="0 0 0 0 0.976471 0 0 0 0 0.941176 0 0 0 0 0.00784314 0 0 0 0.72 0"/>
<feBlend mode="normal" in2="BackgroundImageFix" result="effect1_dropShadow_3632_4411"/>
<feBlend mode="normal" in="SourceGraphic" in2="effect1_dropShadow_3632_4411" result="shape"/>
</filter>
<filter id="filter1_d_3632_4411" x="1274.76" y="1039.48" width="1207" height="678.66" filterUnits="userSpaceOnUse" color-interpolation-filters="sRGB">
<feFlood flood-opacity="0" result="BackgroundImageFix"/>
<feColorMatrix in="SourceAlpha" type="matrix" values="0 0 0 0 0 0 0 0 0 0 0 0 0 0 0 0 0 0 127 0" result="hardAlpha"/>
<feOffset dy="-8"/>
<feGaussianBlur stdDeviation="28"/>
<feComposite in2="hardAlpha" operator="out"/>
<feColorMatrix type="matrix" values="0 0 0 0 0.976471 0 0 0 0 0.941176 0 0 0 0 0.00784314 0 0 0 0.72 0"/>
<feBlend mode="normal" in2="BackgroundImageFix" result="effect1_dropShadow_3632_4411"/>
<feBlend mode="normal" in="SourceGraphic" in2="effect1_dropShadow_3632_4411" result="shape"/>
</filter>
<filter id="filter2_d_3632_4411" x="1593" y="2607.16" width="570.336" height="407.569" filterUnits="userSpaceOnUse" color-interpolation-filters="sRGB">
<feFlood flood-opacity="0" result="BackgroundImageFix"/>
<feColorMatrix in="SourceAlpha" type="matrix" values="0 0 0 0 0 0 0 0 0 0 0 0 0 0 0 0 0 0 127 0" result="hardAlpha"/>
<feOffset dy="-8"/>
<feGaussianBlur stdDeviation="28"/>
<feComposite in2="hardAlpha" operator="out"/>
<feColorMatrix type="matrix" values="0 0 0 0 0.976471 0 0 0 0 0.941176 0 0 0 0 0.00784314 0 0 0 0.72 0"/>
<feBlend mode="normal" in2="BackgroundImageFix" result="effect1_dropShadow_3632_4411"/>
<feBlend mode="normal" in="SourceGraphic" in2="effect1_dropShadow_3632_4411" result="shape"/>
</filter>
<filter id="filter3_d_3632_4411" x="1275" y="2775.48" width="1207" height="678.66" filterUnits="userSpaceOnUse" color-interpolation-filters="sRGB">
<feFlood flood-opacity="0" result="BackgroundImageFix"/>
<feColorMatrix in="SourceAlpha" type="matrix" values="0 0 0 0 0 0 0 0 0 0 0 0 0 0 0 0 0 0 127 0" result="hardAlpha"/>
<feOffset dy="-8"/>
<feGaussianBlur stdDeviation="28"/>
<feComposite in2="hardAlpha" operator="out"/>
<feColorMatrix type="matrix" values="0 0 0 0 0.976471 0 0 0 0 0.941176 0 0 0 0 0.00784314 0 0 0 0.72 0"/>
<feBlend mode="normal" in2="BackgroundImageFix" result="effect1_dropShadow_3632_4411"/>
<feBlend mode="normal" in="SourceGraphic" in2="effect1_dropShadow_3632_4411" result="shape"/>
</filter>
<filter id="filter4_d_3632_4411" x="1187.1" y="3376" width="427.889" height="470.346" filterUnits="userSpaceOnUse" color-interpolation-filters="sRGB">
<feFlood flood-opacity="0" result="BackgroundImageFix"/>
<feColorMatrix in="SourceAlpha" type="matrix" values="0 0 0 0 0 0 0 0 0 0 0 0 0 0 0 0 0 0 127 0" result="hardAlpha"/>
<feOffset/>
<feGaussianBlur stdDeviation="6"/>
<feComposite in2="hardAlpha" operator="out"/>
<feColorMatrix type="matrix" values="0 0 0 0 0 0 0 0 0 0.941176 0 0 0 0 1 0 0 0 0.2 0"/>
<feBlend mode="normal" in2="BackgroundImageFix" result="effect1_dropShadow_3632_4411"/>
<feBlend mode="normal" in="SourceGraphic" in2="effect1_dropShadow_3632_4411" result="shape"/>
</filter>
<filter id="filter5_d_3632_4411" x="2131.1" y="3376" width="427.889" height="470.346" filterUnits="userSpaceOnUse" color-interpolation-filters="sRGB">
<feFlood flood-opacity="0" result="BackgroundImageFix"/>
<feColorMatrix in="SourceAlpha" type="matrix" values="0 0 0 0 0 0 0 0 0 0 0 0 0 0 0 0 0 0 127 0" result="hardAlpha"/>
<feOffset/>
<feGaussianBlur stdDeviation="6"/>
<feComposite in2="hardAlpha" operator="out"/>
<feColorMatrix type="matrix" values="0 0 0 0 0 0 0 0 0 0.941176 0 0 0 0 1 0 0 0 0.2 0"/>
<feBlend mode="normal" in2="BackgroundImageFix" result="effect1_dropShadow_3632_4411"/>
<feBlend mode="normal" in="SourceGraphic" in2="effect1_dropShadow_3632_4411" result="shape"/>
</filter>
<filter id="filter6_d_3632_4411" x="1611.53" y="4999" width="431.281" height="317.897" filterUnits="userSpaceOnUse" color-interpolation-filters="sRGB">
<feFlood flood-opacity="0" result="BackgroundImageFix"/>
<feColorMatrix in="SourceAlpha" type="matrix" values="0 0 0 0 0 0 0 0 0 0 0 0 0 0 0 0 0 0 127 0" result="hardAlpha"/>
<feOffset dy="-8"/>
<feGaussianBlur stdDeviation="28"/>
<feComposite in2="hardAlpha" operator="out"/>
<feColorMatrix type="matrix" values="0 0 0 0 1 0 0 0 0 0.164706 0 0 0 0 0.427451 0 0 0 0.72 0"/>
<feBlend mode="normal" in2="BackgroundImageFix" result="effect1_dropShadow_3632_4411"/>
<feBlend mode="normal" in="SourceGraphic" in2="effect1_dropShadow_3632_4411" result="shape"/>
</filter>
<filter id="filter7_d_3632_4411" x="1224" y="5122.48" width="1207" height="678.659" filterUnits="userSpaceOnUse" color-interpolation-filters="sRGB">
<feFlood flood-opacity="0" result="BackgroundImageFix"/>
<feColorMatrix in="SourceAlpha" type="matrix" values="0 0 0 0 0 0 0 0 0 0 0 0 0 0 0 0 0 0 127 0" result="hardAlpha"/>
<feOffset dy="-8"/>
<feGaussianBlur stdDeviation="28"/>
<feComposite in2="hardAlpha" operator="out"/>
<feColorMatrix type="matrix" values="0 0 0 0 0.976471 0 0 0 0 0.941176 0 0 0 0 0.00784314 0 0 0 0.72 0"/>
<feBlend mode="normal" in2="BackgroundImageFix" result="effect1_dropShadow_3632_4411"/>
<feBlend mode="normal" in="SourceGraphic" in2="effect1_dropShadow_3632_4411" result="shape"/>
</filter>
<linearGradient id="paint0_linear_3632_4411" x1="1878.26" y1="809.204" x2="1878.26" y2="1404.26" gradientUnits="userSpaceOnUse">
<stop offset="0.0459052" stop-color="#C7C002"/>
<stop offset="1" stop-color="#F9F002"/>
</linearGradient>
<linearGradient id="paint1_linear_3632_4411" x1="1877.93" y1="1017" x2="1877.93" y2="1148.9" gradientUnits="userSpaceOnUse">
<stop stop-color="#F9F002"/>
<stop offset="1" stop-color="#C7C002"/>
</linearGradient>
<radialGradient id="paint2_radial_3632_4411" cx="0" cy="0" r="1" gradientTransform="matrix(5.62497e-05 557.493 -638.523 -0.0148036 1878.26 1112.52)" gradientUnits="userSpaceOnUse">
<stop stop-color="#F9F002"/>
<stop offset="1" stop-color="#C7C002"/>
</radialGradient>
<linearGradient id="paint3_linear_3632_4411" x1="1878.26" y1="579" x2="1878.76" y2="1102" gradientUnits="userSpaceOnUse">
<stop offset="0.4422" stop-color="#FEFBCC" stop-opacity="0.7"/>
<stop offset="0.891658" stop-color="#FEFBCC" stop-opacity="0.1"/>
<stop offset="1" stop-color="#FEFBCC" stop-opacity="0"/>
</linearGradient>
<linearGradient id="paint4_linear_3632_4411" x1="1878.5" y1="2545.2" x2="1878.5" y2="3140.26" gradientUnits="userSpaceOnUse">
<stop offset="0.0459052" stop-color="#C7C002"/>
<stop offset="1" stop-color="#F9F002"/>
</linearGradient>
<radialGradient id="paint5_radial_3632_4411" cx="0" cy="0" r="1" gradientUnits="userSpaceOnUse" gradientTransform="translate(1877.48 2671.16) rotate(90) scale(460.405 460.595)">
<stop stop-color="#F9F002"/>
<stop offset="1" stop-color="#C7C002"/>
</radialGradient>
<radialGradient id="paint6_radial_3632_4411" cx="0" cy="0" r="1" gradientTransform="matrix(5.62497e-05 557.493 -638.523 -0.0148036 1878.5 2848.52)" gradientUnits="userSpaceOnUse">
<stop stop-color="#F9F002"/>
<stop offset="1" stop-color="#C7C002"/>
</radialGradient>
<linearGradient id="paint7_linear_3632_4411" x1="1878.5" y1="2315" x2="1879" y2="2838" gradientUnits="userSpaceOnUse">
<stop offset="0.4422" stop-color="#FEFBCC" stop-opacity="0.7"/>
<stop offset="0.891658" stop-color="#FEFBCC" stop-opacity="0.1"/>
<stop offset="1" stop-color="#FEFBCC" stop-opacity="0"/>
</linearGradient>
<linearGradient id="paint8_linear_3632_4411" x1="1401.04" y1="3388" x2="1401.04" y2="3834.35" gradientUnits="userSpaceOnUse">
<stop stop-color="#F9F002"/>
<stop offset="1" stop-color="#8F8B01"/>
</linearGradient>
<linearGradient id="paint9_linear_3632_4411" x1="2345.04" y1="3388" x2="2345.04" y2="3834.35" gradientUnits="userSpaceOnUse">
<stop stop-color="#F9F002"/>
<stop offset="1" stop-color="#8F8B01"/>
</linearGradient>
<linearGradient id="paint10_linear_3632_4411" x1="1827.5" y1="4892.2" x2="1827.5" y2="5487.26" gradientUnits="userSpaceOnUse">
<stop offset="0.0459052" stop-color="#CC2257"/>
<stop offset="1" stop-color="#FF2A6D"/>
</linearGradient>
<radialGradient id="paint11_radial_3632_4411" cx="0" cy="0" r="1" gradientUnits="userSpaceOnUse" gradientTransform="translate(1826.69 5063) rotate(90) scale(320.724 320.857)">
<stop stop-color="#FF2A6D"/>
<stop offset="1" stop-color="#CC2257"/>
</radialGradient>
<radialGradient id="paint12_radial_3632_4411" cx="0" cy="0" r="1" gradientTransform="matrix(5.62497e-05 557.492 -638.523 -0.0148035 1827.5 5195.52)" gradientUnits="userSpaceOnUse">
<stop stop-color="#F9F002"/>
<stop offset="1" stop-color="#C7C002"/>
</radialGradient>
<linearGradient id="paint13_linear_3632_4411" x1="1827.5" y1="4662" x2="1828" y2="5185" gradientUnits="userSpaceOnUse">
<stop offset="0.4422" stop-color="#FFDAE8" stop-opacity="0.7"/>
<stop offset="0.891658" stop-color="#FFDAE8" stop-opacity="0.1"/>
<stop offset="1" stop-color="#FFDAE8" stop-opacity="0"/>
</linearGradient>
</defs>
</svg>
